<svg xmlns="http://www.w3.org/2000/svg" xmlns:xlink="http://www.w3.org/1999/xlink" viewBox="0 0 991 538.8173"><defs><filter id="dropShadow" x="-10%" y="-40%" width="120%" height="400%">
    <feGaussianBlur in="SourceGraphic" stdDeviation="4" />
    <feOffset dx="0" dy="3.4" />
    <feMerge>
        <feMergeNode />
        <feMergeNode in="SourceGraphic" />
    </feMerge>
  </filter><linearGradient id="linear-gradient" x1="27.2632" y1="490.2175" x2="961.7541" y2="490.2175" gradientUnits="userSpaceOnUse"><stop offset="0" stop-color="#a6a6a6"/><stop offset="0.0023" stop-color="#bcbcbc"/><stop offset="0.0055" stop-color="#d4d4d4"/><stop offset="0.0089" stop-color="#e5e5e5"/><stop offset="0.0127" stop-color="#efefef"/><stop offset="0.0173" stop-color="#f2f2f2"/><stop offset="0.042" stop-color="#e3e3e3"/><stop offset="0.1316" stop-color="#e6e7e8"/><stop offset="0.2115" stop-color="#eceef2"/><stop offset="0.7885" stop-color="#f8fbff"/><stop offset="0.958" stop-color="#e3e3e3"/><stop offset="0.9827" stop-color="#f2f2f2"/><stop offset="0.9873" stop-color="#efefef"/><stop offset="0.9911" stop-color="#e5e5e5"/><stop offset="0.9945" stop-color="#d4d4d4"/><stop offset="0.9977" stop-color="#bcbcbc"/><stop offset="1" stop-color="#a6a6a6"/></linearGradient><linearGradient id="linear-gradient-2" x1="494.5087" y1="521.4086" x2="494.5087" y2="535.3861" gradientTransform="translate(0 -21.5742)" gradientUnits="userSpaceOnUse"><stop offset="0" stop-color="#d4d4d4"/><stop offset="0.1932" stop-color="#d0d0d0"/><stop offset="0.376" stop-color="#c5c5c5"/><stop offset="0.5546" stop-color="#b2b2b2"/><stop offset="0.7307" stop-color="#979797"/><stop offset="0.9033" stop-color="#757575"/><stop offset="1" stop-color="#5e5e5e"/></linearGradient><radialGradient id="radial-gradient" cx="495.5034" cy="304.6707" r="102.1104" gradientTransform="translate(0 313.2138) scale(1 0.5)" gradientUnits="userSpaceOnUse"><stop offset="0" stop-color="#e0e0e0"/><stop offset="0.486" stop-color="#dedede"/><stop offset="0.661" stop-color="#d7d7d7"/><stop offset="0.7858" stop-color="#ccc"/><stop offset="0.8866" stop-color="#bbb"/><stop offset="0.972" stop-color="#a5a5a5"/><stop offset="1" stop-color="#9c9c9c"/></radialGradient></defs><title>laptop</title><g id="Set"><path d="M150.33.8424H838.6862a36.9349,36.9349,0,0,1,36.9349,36.9349v439.1a36.9349,36.9349,0,0,1-36.9349,36.9349H150.3311a36.9349,36.9349,0,0,1-36.9349-36.9349V37.7761A36.9337,36.9337,0,0,1,150.33.8424Z" fill="#bcc0c4"/><path d="M150.3311,5.3792H838.6874a32.3981,32.3981,0,0,1,32.3981,32.3981V476.8782a32.3981,32.3981,0,0,1-32.3981,32.3981H150.3311a32.3993,32.3993,0,0,1-32.3993-32.3993V37.7785A32.3993,32.3993,0,0,1,150.3311,5.3792Z"/><rect x="153.1247" y="39.7119" width="682.768" height="416.5574"/><rect x="27.2632" y="480.6006" width="934.4909" height="19.2338" fill="url(#linear-gradient)"/><path d="M27.2632,499.8344h0c15.2588,12.5386,46.3154,13.9775,71.9052,13.9775H889.8477c25.591,0,56.6488-1.4389,71.9064-13.9775Z" fill="url(#linear-gradient-2)" filter="url(#dropShadow)"/><path d="M412.8266,480.6006H576.192c0,5.8927-9.555,10.67-21.34,10.67H434.167C422.38,491.2708,412.8266,486.4933,412.8266,480.6006Z" fill="url(#radial-gradient)"/><circle cx="494.5084" cy="24.3379" r="3.3957" fill="#1c1c1c"/></g></svg>